<?xml version="1.0" encoding="utf-8"?>
<!-- Generator: Adobe Illustrator 21.0.0, SVG Export Plug-In . SVG Version: 6.00 Build 0)  -->
<svg version="1.1" id="Layer_1" xmlns="http://www.w3.org/2000/svg" xmlns:xlink="http://www.w3.org/1999/xlink" x="0px" y="0px"
	 viewBox="0 0 329.5 183.7" style="enable-background:new 0 0 329.5 183.7;" xml:space="preserve">
<style type="text/css">
	.st0{fill:#A06B9D;}
	.st1{fill:#E9CCEA;}
</style>
<g>
	<polygon class="st0" points="29.6,7.4 29.5,7.4 29.6,7.4 29.6,88.6 55.9,175.3 68.3,134.6 	"/>
	<polygon class="st1" points="107,7.4 106.9,7.4 68.3,134.6 55.9,175.3 55.9,175.3 80.6,175.3 107,88.6 	"/>
	<polygon class="st0" points="107,7.4 107,88.6 107,176.3 130.6,176.3 130.6,7.4 	"/>
	<path class="st1" d="M206,78.2c-15.5-3.8-35.7-5.9-35.7-26.9l0,0h-22.8c0,25.9,16.4,40.2,39.7,45.4c24,5.5,40,8.6,40,30.7
		c0,15.2-12.8,26.9-30.7,26.9v22.6c27.6,0,53.5-19,53.5-49.5C250,100.1,233.2,84.9,206,78.2z"/>
	<path class="st0" d="M196.5,29.3c12.1,0,26.2,6.2,26.2,22.1v3.1v1.8h22.6v-1.8v-3.1c0-24.5-20.7-44.7-48.7-44.7
		c-24.5,0-49,16.2-49,44.7l0,0h22.8C170.4,37.8,181.1,29.3,196.5,29.3z"/>
	<path class="st0" d="M165.9,127.5v-3.8v-1.1H143v1.1v3.8c0,27.1,22.8,49.5,53.5,49.5v-22.7C178.7,154.3,165.9,142.9,165.9,127.5z"
		/>
	<polygon class="st1" points="29.5,7.4 5.9,7.4 5.9,176.3 29.6,176.3 29.6,88.6 29.6,7.4 	"/>
</g>
</svg>
