<?xml version="1.0" encoding="UTF-8" standalone="no"?>
<!-- Created with Inkscape (http://www.inkscape.org/) -->

<svg
   xmlns:dc="http://purl.org/dc/elements/1.1/"
   xmlns:cc="http://creativecommons.org/ns#"
   xmlns:rdf="http://www.w3.org/1999/02/22-rdf-syntax-ns#"
   xmlns:svg="http://www.w3.org/2000/svg"
   xmlns="http://www.w3.org/2000/svg"
   xmlns:sodipodi="http://sodipodi.sourceforge.net/DTD/sodipodi-0.dtd"
   xmlns:inkscape="http://www.inkscape.org/namespaces/inkscape"
   width="100"
   height="100"
   id="svg7874"
   version="1.1"
   inkscape:version="0.48.5 r10040"
   sodipodi:docname="icon-form2.svg">
  <defs
     id="defs7876" />
  <sodipodi:namedview
     id="base"
     pagecolor="#ffffff"
     bordercolor="#666666"
     borderopacity="1.0"
     inkscape:pageopacity="0.0"
     inkscape:pageshadow="2"
     inkscape:zoom="1.4"
     inkscape:cx="118.51317"
     inkscape:cy="85.457446"
     inkscape:document-units="px"
     inkscape:current-layer="layer1"
     showgrid="false"
     inkscape:showpageshadow="false"
     inkscape:window-width="3840"
     inkscape:window-height="1529"
     inkscape:window-x="1912"
     inkscape:window-y="-8"
     inkscape:window-maximized="1" />
  <metadata
     id="metadata7879">
    <rdf:RDF>
      <cc:Work
         rdf:about="">
        <dc:format>image/svg+xml</dc:format>
        <dc:type
           rdf:resource="http://purl.org/dc/dcmitype/StillImage" />
        <dc:title></dc:title>
      </cc:Work>
    </rdf:RDF>
  </metadata>
  <g
     inkscape:label="Layer 1"
     inkscape:groupmode="layer"
     id="layer1"
     transform="translate(0,-952.3622)">
    <rect
       ry="0.98534572"
       rx="0.95044696"
       y="971.61084"
       x="44.064705"
       height="58.448296"
       width="11.870596"
       id="rect67232-0-7-2"
       style="fill:#323d4a;fill-opacity:1;fill-rule:nonzero;stroke:none" />
    <rect
       ry="4"
       rx="4"
       y="1028.3385"
       x="1.9762235"
       height="22.047554"
       width="96.047554"
       id="rect67234-6-4-7"
       style="fill:#eceff4;fill-opacity:1;fill-rule:nonzero;stroke:none;stroke-width:3.95244694000000020;stroke-opacity:1;stroke-dasharray:none" />
    <g
       id="g67244-0-5-8"
       transform="matrix(1.7961204,-3.7157009e-8,3.7157009e-8,1.7961203,788.39888,-1164.1677)">
      <rect
         style="fill:#3a4756;fill-opacity:1;fill-rule:nonzero;stroke:none"
         id="rect67240-7-1-6"
         width="7.1225553"
         height="2.2035408"
         x="-398.94604"
         y="1227.8931" />
      <rect
         style="fill:#3a4756;fill-opacity:1;fill-rule:nonzero;stroke:none"
         id="rect67242-4-4-3"
         width="2.2260165"
         height="2.2035408"
         x="-390.13242"
         y="1227.8931" />
    </g>
    <path
       style="fill:#bac3cf;fill-opacity:1;fill-rule:nonzero;stroke:none"
       d="M 5.96875 77.9375 C 4.8133946 77.9375 3.9375 78.81345 3.9375 79.96875 L 3.9375 94 C 3.9375 95.1554 4.8133946 96.03125 5.96875 96.03125 L 16.9375 96.03125 L 16.9375 77.9375 L 5.96875 77.9375 z "
       transform="translate(0,952.3622)"
       id="path67258-0-0-7" />
    <rect
       style="fill:#eceff4;fill-opacity:1;fill-rule:nonzero;stroke:none;stroke-width:3.95244694000000020;stroke-opacity:1;stroke-dasharray:none"
       id="rect67236-3-3-9"
       width="96.047554"
       height="22.047554"
       x="1.9762235"
       y="991.33838"
       rx="4"
       ry="4" />
    <g
       id="g67250-5-7-2"
       transform="matrix(1.7961204,-3.7157009e-8,3.7157009e-8,1.7961203,788.39888,-1201.3525)">
      <rect
         style="fill:#3a4756;fill-opacity:1;fill-rule:nonzero;stroke:none"
         id="rect67246-9-3-3"
         width="7.1225553"
         height="2.2035408"
         x="-398.94604"
         y="1227.8931" />
      <rect
         style="fill:#3a4756;fill-opacity:1;fill-rule:nonzero;stroke:none"
         id="rect67248-3-4-7"
         width="2.2260165"
         height="2.2035408"
         x="-390.13242"
         y="1227.8931" />
    </g>
    <rect
       ry="4"
       rx="4"
       y="954.33838"
       x="1.9762235"
       height="22.047554"
       width="96.047554"
       id="rect67238-2-2-6"
       style="fill:#eceff4;fill-opacity:1;fill-rule:nonzero;stroke:none;stroke-width:3.95244694000000020;stroke-opacity:1;stroke-dasharray:none" />
    <g
       id="g67256-6-5-0"
       transform="matrix(1.7961204,-3.7157009e-8,3.7157009e-8,1.7961203,788.39888,-1237.8873)">
      <rect
         style="fill:#3a4756;fill-opacity:1;fill-rule:nonzero;stroke:none"
         id="rect67252-0-8-0"
         width="7.1225553"
         height="2.2035408"
         x="-398.94604"
         y="1227.8931" />
      <rect
         style="fill:#3a4756;fill-opacity:1;fill-rule:nonzero;stroke:none"
         id="rect67254-2-5-7"
         width="2.2260165"
         height="2.2035408"
         x="-390.13242"
         y="1227.8931" />
    </g>
    <path
       style="fill:#bac3cf;fill-opacity:1;fill-rule:nonzero;stroke:none"
       d="M 5.96875 3.9375 C 4.8133946 3.9375 3.9375 4.81339 3.9375 5.96875 L 3.9375 20 C 3.9375 21.1554 4.8133946 22.03125 5.96875 22.03125 L 16.9375 22.03125 L 16.9375 3.9375 L 5.96875 3.9375 z "
       transform="translate(0,952.3622)"
       id="path67262-5-0-1" />
    <path
       style="fill:#bac3cf;fill-opacity:1;fill-rule:nonzero;stroke:none"
       d="M 5.96875 40.9375 C 4.8133946 40.9375 3.9375 41.81339 3.9375 42.96875 L 3.9375 57 C 3.9375 58.1554 4.8133946 59.03125 5.96875 59.03125 L 16.9375 59.03125 L 16.9375 40.9375 L 5.96875 40.9375 z "
       transform="translate(0,952.3622)"
       id="path67260-5-3-9" />
    <path
       style="font-size:medium;font-style:normal;font-variant:normal;font-weight:normal;font-stretch:normal;text-indent:0;text-align:start;text-decoration:none;line-height:normal;letter-spacing:normal;word-spacing:normal;text-transform:none;direction:ltr;block-progression:tb;writing-mode:lr-tb;text-anchor:start;baseline-shift:baseline;color:#000000;fill:#3a4756;fill-opacity:1;fill-rule:nonzero;stroke:none;stroke-width:3.95244694;marker:none;visibility:visible;display:inline;overflow:visible;enable-background:accumulate;font-family:Sans;-inkscape-font-specification:Sans"
       d="M 5.96875,989.375 C 2.6921054,989.375 0,992.06711 0,995.34375 l 0,14.03125 c 0,3.2766 2.6921054,6 5.96875,6 l 88.0625,0 c 3.276645,0 5.96875,-2.7234 5.96875,-6 l 0,-14.03125 c 0,-3.27664 -2.692105,-5.96875 -5.96875,-5.96875 l -88.0625,0 z m 0,3.9375 88.0625,0 c 1.155355,0 2.03125,0.87589 2.03125,2.03125 l 0,14.03125 c 0,1.1554 -0.875895,2.0312 -2.03125,2.0312 l -88.0625,0 c -1.1553554,0 -2.03125,-0.8758 -2.03125,-2.0312 l 0,-14.03125 c 0,-1.15536 0.8758946,-2.03125 2.03125,-2.03125 z"
       id="rect5716"
       inkscape:connector-curvature="0" />
    <path
       inkscape:connector-curvature="0"
       id="path5720"
       d="m 5.9687505,952.36216 c -3.2766446,0 -5.96875002316284,2.69211 -5.96875002316284,5.96875 l 0,14.03125 c 0,3.2766 2.69210542316284,6 5.96875002316284,6 l 88.0624995,0 c 3.276645,0 5.96875,-2.7234 5.96875,-6 l 0,-14.03125 c 0,-3.27664 -2.692105,-5.96875 -5.96875,-5.96875 l -88.0624995,0 z m 0,3.9375 88.0624995,0 c 1.155355,0 2.03125,0.87589 2.03125,2.03125 l 0,14.03125 c 0,1.1554 -0.875895,2.0312 -2.03125,2.0312 l -88.0624995,0 c -1.1553554,0 -2.03125,-0.8758 -2.03125,-2.0312 l 0,-14.03125 c 0,-1.15536 0.8758946,-2.03125 2.03125,-2.03125 z"
       style="font-size:medium;font-style:normal;font-variant:normal;font-weight:normal;font-stretch:normal;text-indent:0;text-align:start;text-decoration:none;line-height:normal;letter-spacing:normal;word-spacing:normal;text-transform:none;direction:ltr;block-progression:tb;writing-mode:lr-tb;text-anchor:start;baseline-shift:baseline;color:#000000;fill:#3a4756;fill-opacity:1;fill-rule:nonzero;stroke:none;stroke-width:3.95244694;marker:none;visibility:visible;display:inline;overflow:visible;enable-background:accumulate;font-family:Sans;-inkscape-font-specification:Sans" />
    <path
       style="font-size:medium;font-style:normal;font-variant:normal;font-weight:normal;font-stretch:normal;text-indent:0;text-align:start;text-decoration:none;line-height:normal;letter-spacing:normal;word-spacing:normal;text-transform:none;direction:ltr;block-progression:tb;writing-mode:lr-tb;text-anchor:start;baseline-shift:baseline;color:#000000;fill:#3a4756;fill-opacity:1;fill-rule:nonzero;stroke:none;stroke-width:3.95244694;marker:none;visibility:visible;display:inline;overflow:visible;enable-background:accumulate;font-family:Sans;-inkscape-font-specification:Sans"
       d="m 5.9687505,1026.3623 c -3.2766446,0 -5.96875002316284,2.6921 -5.96875002316284,5.9687 l 0,14.0313 c 0,3.2766 2.69210542316284,6 5.96875002316284,6 l 88.0624995,0 c 3.276645,0 5.96875,-2.7234 5.96875,-6 l 0,-14.0313 c 0,-3.2766 -2.692105,-5.9687 -5.96875,-5.9687 l -88.0624995,0 z m 0,3.9375 88.0624995,0 c 1.155355,0 2.03125,0.8759 2.03125,2.0312 l 0,14.0313 c 0,1.1554 -0.875895,2.0312 -2.03125,2.0312 l -88.0624995,0 c -1.1553554,0 -2.03125,-0.8758 -2.03125,-2.0312 l 0,-14.0313 c 0,-1.1553 0.8758946,-2.0312 2.03125,-2.0312 z"
       id="path5722"
       inkscape:connector-curvature="0" />
  </g>
</svg>
