<?xml version="1.0" encoding="UTF-8" standalone="no"?>
<!-- Generator: Adobe Illustrator 16.0.0, SVG Export Plug-In . SVG Version: 6.00 Build 0)  -->

<svg
   xmlns:dc="http://purl.org/dc/elements/1.1/"
   xmlns:cc="http://creativecommons.org/ns#"
   xmlns:rdf="http://www.w3.org/1999/02/22-rdf-syntax-ns#"
   xmlns:svg="http://www.w3.org/2000/svg"
   xmlns="http://www.w3.org/2000/svg"
   xmlns:xlink="http://www.w3.org/1999/xlink"
   xmlns:sodipodi="http://sodipodi.sourceforge.net/DTD/sodipodi-0.dtd"
   xmlns:inkscape="http://www.inkscape.org/namespaces/inkscape"
   version="1.1"
   id="Layer_1"
   x="0px"
   y="0px"
   width="302"
   height="71"
   viewBox="0 0 302 71.000002"
   xml:space="preserve"
   inkscape:version="0.48.5 r10040"
   sodipodi:docname="logo-formio-horizontal-lightbg.svg"><metadata
   id="metadata4310"><rdf:RDF><cc:Work
       rdf:about=""><dc:format>image/svg+xml</dc:format><dc:type
         rdf:resource="http://purl.org/dc/dcmitype/StillImage" /><dc:title /></cc:Work></rdf:RDF></metadata><defs
   id="defs4308">
	<defs
   id="defs4282">
		<rect
   height="115.2"
   width="324"
   id="SVGID_1_"
   x="0"
   y="0" />
	</defs>
	<clipPath
   id="SVGID_2_">
		<use
   id="use4286"
   style="overflow:visible"
   xlink:href="#SVGID_1_"
   x="0"
   y="0"
   width="324"
   height="115.2" />
	</clipPath>
	
	
	
	
	
	
	
	
	
</defs><sodipodi:namedview
   pagecolor="#ffffff"
   bordercolor="#666666"
   borderopacity="1"
   objecttolerance="10"
   gridtolerance="10"
   guidetolerance="10"
   inkscape:pageopacity="0"
   inkscape:pageshadow="2"
   inkscape:window-width="3840"
   inkscape:window-height="1537"
   id="namedview4306"
   showgrid="false"
   inkscape:showpageshadow="false"
   inkscape:zoom="3.0204808"
   inkscape:cx="140.00371"
   inkscape:cy="81.648099"
   inkscape:window-x="1912"
   inkscape:window-y="-8"
   inkscape:window-maximized="1"
   inkscape:current-layer="Layer_1" />
<style
   type="text/css"
   id="style4276">

	.st0{fill:#383A35;}
	.st1{clip-path:url(#SVGID_2_);fill:#69B342;}
	.st2{clip-path:url(#SVGID_2_);fill:#383A35;}

</style>
<polygon
   class="st0"
   points="95.5,82.6 95.5,37.7 127.1,37.7 127.1,45.7 105.1,45.7 105.1,56.7 125.7,56.7 125.7,64.6 105.1,64.6 105.1,82.6 "
   id="polygon4278"
   transform="matrix(0.99933821,0,0,0.99933821,-10.892791,-21.938452)"
   style="fill:#3a4756;fill-opacity:1" />
<path
   style="fill:#3a4756;fill-opacity:1"
   inkscape:connector-curvature="0"
   clip-path="url(#SVGID_2_)"
   id="path4288"
   d="m 139.1,65.8 c 0,6.5 2.8,10.3 7.3,10.3 4.6,0 7.2,-3.8 7.2,-10.3 0,-7.1 -2.6,-10.4 -7.3,-10.4 -4.3,0 -7.2,3.2 -7.2,10.4 m 24.1,-0.1 c 0,10.2 -6.1,17.7 -16.9,17.7 -10.5,0 -16.7,-7.5 -16.7,-17.5 0,-10.4 6.3,-17.8 17.1,-17.8 10,0 16.5,7 16.5,17.6"
   class="st2"
   transform="matrix(0.99933821,0,0,0.99933821,-10.892791,-21.938452)" /><path
   style="fill:#3a4756;fill-opacity:1"
   inkscape:connector-curvature="0"
   clip-path="url(#SVGID_2_)"
   id="path4290"
   d="m 167,58.1 c 0,-3.4 0,-6.3 -0.1,-9.1 h 9.2 c 0.1,0.8 0.2,4.1 0.2,5.9 1.5,-3.9 5.1,-6.7 10.9,-6.7 V 57 c -6.8,-0.2 -10.9,1.6 -10.9,10.9 V 82.6 H 167 V 58.1 z"
   class="st2"
   transform="matrix(0.99933821,0,0,0.99933821,-10.892791,-21.938452)" /><path
   style="fill:#3a4756;fill-opacity:1"
   inkscape:connector-curvature="0"
   clip-path="url(#SVGID_2_)"
   id="path4292"
   d="m 192.8,57.6 c 0,-2.9 0,-5.8 -0.1,-8.7 h 9 c 0.1,0.8 0.3,2.7 0.4,4 1.7,-2.5 4.4,-4.8 9.4,-4.8 4.9,0 7.6,2.5 8.8,5.1 2,-2.8 4.9,-5.1 10.5,-5.1 5.9,0 10.8,3.6 10.8,12.4 v 22.1 h -9.2 v -21 c 0,-3 -1.1,-6 -5,-6 -4,0 -5.6,2.6 -5.6,7.7 v 19.3 h -9.2 V 62 c 0,-3.5 -0.9,-6.3 -4.9,-6.3 -3.8,0 -5.6,2.3 -5.6,8.1 v 18.8 h -9.3 v -25 z"
   class="st2"
   transform="matrix(0.99933821,0,0,0.99933821,-10.892791,-21.938452)" /><rect
   style="fill:#3a4756;fill-opacity:1"
   clip-path="url(#SVGID_2_)"
   id="rect4294"
   height="11.4"
   width="10.1"
   class="st2"
   y="71.199997"
   x="247.5"
   transform="matrix(0.99933821,0,0,0.99933821,-10.892791,-21.938452)" /><path
   style="fill:#3a4756;fill-opacity:1"
   inkscape:connector-curvature="0"
   clip-path="url(#SVGID_2_)"
   id="path4296"
   d="m 263.7,48.9 h 9.4 v 33.7 h -9.4 V 48.9 z m 0,-13.8 h 9.4 v 8.3 h -9.4 v -8.3 z"
   class="st2"
   transform="matrix(0.99933821,0,0,0.99933821,-10.892791,-21.938452)" /><path
   style="fill:#3a4756;fill-opacity:1"
   inkscape:connector-curvature="0"
   clip-path="url(#SVGID_2_)"
   id="path4298"
   d="m 289.1,65.8 c 0,6.5 2.8,10.3 7.3,10.3 4.6,0 7.2,-3.8 7.2,-10.3 0,-7.1 -2.6,-10.4 -7.3,-10.4 -4.3,0 -7.2,3.2 -7.2,10.4 m 24,-0.1 c 0,10.2 -6.1,17.7 -16.9,17.7 -10.5,0 -16.7,-7.5 -16.7,-17.5 0,-10.4 6.3,-17.8 17.1,-17.8 10.1,0 16.5,7 16.5,17.6"
   class="st2"
   transform="matrix(0.99933821,0,0,0.99933821,-10.892791,-21.938452)" /><polygon
   style="fill:#3a4756;fill-opacity:1"
   clip-path="url(#SVGID_2_)"
   id="polygon4300"
   points="37.2,57.9 45.4,66 54.9,56.6 46.7,48.4 "
   class="st2"
   transform="matrix(0.99933821,0,0,0.99933821,-10.892791,-21.938452)" /><polygon
   style="fill:#3a4756;fill-opacity:1"
   clip-path="url(#SVGID_2_)"
   id="polygon4302"
   points="46,22.2 10.9,57.4 46.4,93 54.4,85 26.7,57.3 53.9,30.1 "
   class="st2"
   transform="matrix(0.99933821,0,0,0.99933821,-10.892791,-21.938452)" /><polygon
   style="fill:#69b342"
   clip-path="url(#SVGID_2_)"
   id="polygon4304"
   points="51.4,72 59.4,80 81.6,57.8 81.6,57.7 81.6,57.7 59.4,35.5 51.4,43.4 65.7,57.7 "
   class="st1"
   transform="matrix(0.99933821,0,0,0.99933821,-10.892791,-21.938452)" />
</svg>